<mxfile host="Electron" agent="Mozilla/5.0 (X11; Linux x86_64) AppleWebKit/537.36 (KHTML, like Gecko) draw.io/26.0.16 Chrome/132.0.6834.196 Electron/34.2.0 Safari/537.36" version="26.0.16">
  <diagram name="Page-1" id="sDr4pnCWOr7yjJP6VdtP">
    <mxGraphModel dx="2271" dy="3134" grid="1" gridSize="10" guides="1" tooltips="1" connect="1" arrows="1" fold="1" page="1" pageScale="1" pageWidth="827" pageHeight="1169" math="0" shadow="0">
      <root>
        <mxCell id="0" />
        <mxCell id="1" parent="0" />
        <mxCell id="0923S_j0JnBtRMVEVHoq-51" value="" style="rounded=0;whiteSpace=wrap;html=1;fillColor=none;strokeWidth=4;" vertex="1" parent="1">
          <mxGeometry x="41" y="-110" width="2220" height="1600" as="geometry" />
        </mxCell>
        <mxCell id="0923S_j0JnBtRMVEVHoq-52" value="" style="endArrow=classic;html=1;rounded=0;strokeWidth=4;endFill=1;startArrow=none;startFill=0;endSize=28;targetPerimeterSpacing=0;entryX=0;entryY=0.5;entryDx=0;entryDy=0;exitX=0;exitY=0.209;exitDx=0;exitDy=0;exitPerimeter=0;" edge="1" parent="1" source="0923S_j0JnBtRMVEVHoq-51" target="0923S_j0JnBtRMVEVHoq-53">
          <mxGeometry width="50" height="50" relative="1" as="geometry">
            <mxPoint x="277" y="225.5" as="sourcePoint" />
            <mxPoint x="452" y="224.5" as="targetPoint" />
          </mxGeometry>
        </mxCell>
        <mxCell id="0923S_j0JnBtRMVEVHoq-53" value="&lt;font style=&quot;font-size: 52px;&quot; face=&quot;MS Mincho,ＭＳ 明朝&quot;&gt;Arbiter&lt;/font&gt;" style="rhombus;whiteSpace=wrap;html=1;fillColor=none;strokeWidth=4;" vertex="1" parent="1">
          <mxGeometry x="430" y="130" width="260" height="190" as="geometry" />
        </mxCell>
        <mxCell id="0923S_j0JnBtRMVEVHoq-56" value="" style="endArrow=classic;html=1;rounded=0;strokeWidth=4;endFill=1;startArrow=none;startFill=0;endSize=28;targetPerimeterSpacing=0;exitX=0.997;exitY=0.5;exitDx=0;exitDy=0;exitPerimeter=0;" edge="1" parent="1" source="0923S_j0JnBtRMVEVHoq-53">
          <mxGeometry width="50" height="50" relative="1" as="geometry">
            <mxPoint x="692" y="225" as="sourcePoint" />
            <mxPoint x="802" y="225" as="targetPoint" />
          </mxGeometry>
        </mxCell>
        <mxCell id="0923S_j0JnBtRMVEVHoq-67" value="" style="group" vertex="1" connectable="0" parent="1">
          <mxGeometry x="804" y="135" width="76" height="180" as="geometry" />
        </mxCell>
        <mxCell id="0923S_j0JnBtRMVEVHoq-64" value="" style="verticalLabelPosition=bottom;verticalAlign=top;html=1;shape=mxgraph.basic.arc;startAngle=0.75;endAngle=0;strokeWidth=4;" vertex="1" parent="0923S_j0JnBtRMVEVHoq-67">
          <mxGeometry width="76" height="50" as="geometry" />
        </mxCell>
        <mxCell id="0923S_j0JnBtRMVEVHoq-65" value="" style="endArrow=none;html=1;rounded=0;strokeWidth=4;" edge="1" parent="0923S_j0JnBtRMVEVHoq-67">
          <mxGeometry width="50" height="50" relative="1" as="geometry">
            <mxPoint y="155" as="sourcePoint" />
            <mxPoint y="25" as="targetPoint" />
          </mxGeometry>
        </mxCell>
        <mxCell id="0923S_j0JnBtRMVEVHoq-66" value="" style="verticalLabelPosition=bottom;verticalAlign=top;html=1;shape=mxgraph.basic.arc;startAngle=0.75;endAngle=0;strokeWidth=4;flipV=1;" vertex="1" parent="0923S_j0JnBtRMVEVHoq-67">
          <mxGeometry y="130" width="76" height="50" as="geometry" />
        </mxCell>
        <mxCell id="0923S_j0JnBtRMVEVHoq-68" value="&lt;font style=&quot;font-size: 56px;&quot; face=&quot;MS Mincho, ＭＳ 明朝&quot;&gt;&lt;span style=&quot;text-wrap-mode: nowrap;&quot;&gt;fetch MSHR&lt;/span&gt;&lt;/font&gt;" style="rounded=0;whiteSpace=wrap;html=1;fillColor=#B3B3B3;strokeWidth=4;shadow=0;glass=0;autosize=0;resizeWidth=0;imageHeight=24;imageAspect=1;perimeter=rectanglePerimeter;arcSize=21;" vertex="1" parent="1">
          <mxGeometry x="850" y="87" width="379" height="103" as="geometry" />
        </mxCell>
        <mxCell id="0923S_j0JnBtRMVEVHoq-69" value="&lt;font style=&quot;font-size: 56px;&quot; face=&quot;MS Mincho, ＭＳ 明朝&quot;&gt;&lt;span style=&quot;text-wrap-mode: nowrap;&quot;&gt;fetch MSHR&lt;/span&gt;&lt;/font&gt;" style="rounded=0;whiteSpace=wrap;html=1;fillColor=#B3B3B3;strokeWidth=4;shadow=0;glass=0;autosize=0;resizeWidth=0;imageHeight=24;imageAspect=1;perimeter=rectanglePerimeter;arcSize=21;" vertex="1" parent="1">
          <mxGeometry x="850" y="266" width="379" height="103" as="geometry" />
        </mxCell>
        <mxCell id="0923S_j0JnBtRMVEVHoq-70" value="" style="shape=waypoint;sketch=0;fillStyle=solid;size=6;pointerEvents=1;points=[];fillColor=none;resizable=0;rotatable=0;perimeter=centerPerimeter;snapToPoint=1;strokeWidth=3;" vertex="1" parent="1">
          <mxGeometry x="979.5" y="215" width="20" height="20" as="geometry" />
        </mxCell>
        <mxCell id="0923S_j0JnBtRMVEVHoq-71" value="" style="shape=waypoint;sketch=0;fillStyle=solid;size=6;pointerEvents=1;points=[];fillColor=none;resizable=0;rotatable=0;perimeter=centerPerimeter;snapToPoint=1;strokeWidth=3;" vertex="1" parent="1">
          <mxGeometry x="999.5" y="215" width="20" height="20" as="geometry" />
        </mxCell>
        <mxCell id="0923S_j0JnBtRMVEVHoq-72" value="" style="shape=waypoint;sketch=0;fillStyle=solid;size=6;pointerEvents=1;points=[];fillColor=none;resizable=0;rotatable=0;perimeter=centerPerimeter;snapToPoint=1;strokeWidth=3;" vertex="1" parent="1">
          <mxGeometry x="1019.5" y="215" width="20" height="20" as="geometry" />
        </mxCell>
        <mxCell id="0923S_j0JnBtRMVEVHoq-73" value="" style="shape=waypoint;sketch=0;fillStyle=solid;size=6;pointerEvents=1;points=[];fillColor=none;resizable=0;rotatable=0;perimeter=centerPerimeter;snapToPoint=1;strokeWidth=3;" vertex="1" parent="1">
          <mxGeometry x="1039.5" y="215" width="20" height="20" as="geometry" />
        </mxCell>
        <mxCell id="0923S_j0JnBtRMVEVHoq-74" value="" style="shape=waypoint;sketch=0;fillStyle=solid;size=6;pointerEvents=1;points=[];fillColor=none;resizable=0;rotatable=0;perimeter=centerPerimeter;snapToPoint=1;strokeWidth=3;" vertex="1" parent="1">
          <mxGeometry x="1059.5" y="215" width="20" height="20" as="geometry" />
        </mxCell>
        <mxCell id="0923S_j0JnBtRMVEVHoq-75" value="" style="shape=waypoint;sketch=0;fillStyle=solid;size=6;pointerEvents=1;points=[];fillColor=none;resizable=0;rotatable=0;perimeter=centerPerimeter;snapToPoint=1;strokeWidth=3;" vertex="1" parent="1">
          <mxGeometry x="1079.5" y="215" width="20" height="20" as="geometry" />
        </mxCell>
        <mxCell id="0923S_j0JnBtRMVEVHoq-80" value="" style="group;direction=east;rotation=-180;" vertex="1" connectable="0" parent="1">
          <mxGeometry x="1200" y="135" width="76" height="180" as="geometry" />
        </mxCell>
        <mxCell id="0923S_j0JnBtRMVEVHoq-81" value="" style="verticalLabelPosition=bottom;verticalAlign=top;html=1;shape=mxgraph.basic.arc;startAngle=0.75;endAngle=0;strokeWidth=4;rotation=-180;" vertex="1" parent="0923S_j0JnBtRMVEVHoq-80">
          <mxGeometry y="130" width="76" height="50" as="geometry" />
        </mxCell>
        <mxCell id="0923S_j0JnBtRMVEVHoq-82" value="" style="endArrow=none;html=1;rounded=0;strokeWidth=4;" edge="1" parent="0923S_j0JnBtRMVEVHoq-80">
          <mxGeometry width="50" height="50" relative="1" as="geometry">
            <mxPoint x="76" y="25" as="sourcePoint" />
            <mxPoint x="76" y="155" as="targetPoint" />
          </mxGeometry>
        </mxCell>
        <mxCell id="0923S_j0JnBtRMVEVHoq-83" value="" style="verticalLabelPosition=bottom;verticalAlign=top;html=1;shape=mxgraph.basic.arc;startAngle=0.75;endAngle=0;strokeWidth=4;flipV=1;rotation=-180;" vertex="1" parent="0923S_j0JnBtRMVEVHoq-80">
          <mxGeometry width="76" height="50" as="geometry" />
        </mxCell>
        <mxCell id="0923S_j0JnBtRMVEVHoq-84" value="&lt;font face=&quot;MS Mincho,ＭＳ 明朝&quot; style=&quot;font-size: 42px;&quot;&gt;fetch_req&lt;/font&gt;" style="edgeLabel;html=1;align=center;verticalAlign=middle;resizable=0;points=[];labelBackgroundColor=default;" vertex="1" connectable="0" parent="1">
          <mxGeometry x="209.99658214415217" y="314.99646359859435" as="geometry">
            <mxPoint x="2" y="-93" as="offset" />
          </mxGeometry>
        </mxCell>
        <mxCell id="0923S_j0JnBtRMVEVHoq-85" value="" style="endArrow=classic;html=1;rounded=0;strokeWidth=4;endFill=1;startArrow=none;startFill=0;endSize=28;targetPerimeterSpacing=0;entryX=0;entryY=0.5;entryDx=0;entryDy=0;" edge="1" parent="1" target="0923S_j0JnBtRMVEVHoq-86">
          <mxGeometry width="50" height="50" relative="1" as="geometry">
            <mxPoint x="43" y="536" as="sourcePoint" />
            <mxPoint x="452" y="536.5" as="targetPoint" />
          </mxGeometry>
        </mxCell>
        <mxCell id="0923S_j0JnBtRMVEVHoq-86" value="&lt;font style=&quot;font-size: 52px;&quot; face=&quot;MS Mincho,ＭＳ 明朝&quot;&gt;Arbiter&lt;/font&gt;" style="rhombus;whiteSpace=wrap;html=1;fillColor=none;strokeWidth=4;" vertex="1" parent="1">
          <mxGeometry x="430" y="442" width="260" height="190" as="geometry" />
        </mxCell>
        <mxCell id="0923S_j0JnBtRMVEVHoq-87" value="" style="endArrow=classic;html=1;rounded=0;strokeWidth=4;endFill=1;startArrow=none;startFill=0;endSize=28;targetPerimeterSpacing=0;exitX=0.997;exitY=0.5;exitDx=0;exitDy=0;exitPerimeter=0;" edge="1" parent="1" source="0923S_j0JnBtRMVEVHoq-86">
          <mxGeometry width="50" height="50" relative="1" as="geometry">
            <mxPoint x="692" y="537" as="sourcePoint" />
            <mxPoint x="802" y="537" as="targetPoint" />
          </mxGeometry>
        </mxCell>
        <mxCell id="0923S_j0JnBtRMVEVHoq-88" value="" style="group" vertex="1" connectable="0" parent="1">
          <mxGeometry x="804" y="447" width="76" height="180" as="geometry" />
        </mxCell>
        <mxCell id="0923S_j0JnBtRMVEVHoq-89" value="" style="verticalLabelPosition=bottom;verticalAlign=top;html=1;shape=mxgraph.basic.arc;startAngle=0.75;endAngle=0;strokeWidth=4;" vertex="1" parent="0923S_j0JnBtRMVEVHoq-88">
          <mxGeometry width="76" height="50" as="geometry" />
        </mxCell>
        <mxCell id="0923S_j0JnBtRMVEVHoq-90" value="" style="endArrow=none;html=1;rounded=0;strokeWidth=4;" edge="1" parent="0923S_j0JnBtRMVEVHoq-88">
          <mxGeometry width="50" height="50" relative="1" as="geometry">
            <mxPoint y="155" as="sourcePoint" />
            <mxPoint y="25" as="targetPoint" />
          </mxGeometry>
        </mxCell>
        <mxCell id="0923S_j0JnBtRMVEVHoq-91" value="" style="verticalLabelPosition=bottom;verticalAlign=top;html=1;shape=mxgraph.basic.arc;startAngle=0.75;endAngle=0;strokeWidth=4;flipV=1;" vertex="1" parent="0923S_j0JnBtRMVEVHoq-88">
          <mxGeometry y="130" width="76" height="50" as="geometry" />
        </mxCell>
        <mxCell id="0923S_j0JnBtRMVEVHoq-92" value="&lt;font style=&quot;font-size: 56px;&quot; face=&quot;MS Mincho, ＭＳ 明朝&quot;&gt;&lt;span style=&quot;text-wrap-mode: nowrap;&quot;&gt;prefetch MSHR&lt;/span&gt;&lt;/font&gt;" style="rounded=0;whiteSpace=wrap;html=1;fillColor=#B3B3B3;strokeWidth=4;shadow=0;glass=0;autosize=0;resizeWidth=0;imageHeight=24;imageAspect=1;perimeter=rectanglePerimeter;arcSize=21;" vertex="1" parent="1">
          <mxGeometry x="850" y="399" width="379" height="103" as="geometry" />
        </mxCell>
        <mxCell id="0923S_j0JnBtRMVEVHoq-93" value="&lt;font style=&quot;font-size: 56px;&quot; face=&quot;MS Mincho, ＭＳ 明朝&quot;&gt;&lt;span style=&quot;text-wrap-mode: nowrap;&quot;&gt;prefetch MSHR&lt;/span&gt;&lt;/font&gt;" style="rounded=0;whiteSpace=wrap;html=1;fillColor=#B3B3B3;strokeWidth=4;shadow=0;glass=0;autosize=0;resizeWidth=0;imageHeight=24;imageAspect=1;perimeter=rectanglePerimeter;arcSize=21;" vertex="1" parent="1">
          <mxGeometry x="850" y="578" width="379" height="103" as="geometry" />
        </mxCell>
        <mxCell id="0923S_j0JnBtRMVEVHoq-94" value="" style="shape=waypoint;sketch=0;fillStyle=solid;size=6;pointerEvents=1;points=[];fillColor=none;resizable=0;rotatable=0;perimeter=centerPerimeter;snapToPoint=1;strokeWidth=3;" vertex="1" parent="1">
          <mxGeometry x="979.5" y="527" width="20" height="20" as="geometry" />
        </mxCell>
        <mxCell id="0923S_j0JnBtRMVEVHoq-95" value="" style="shape=waypoint;sketch=0;fillStyle=solid;size=6;pointerEvents=1;points=[];fillColor=none;resizable=0;rotatable=0;perimeter=centerPerimeter;snapToPoint=1;strokeWidth=3;" vertex="1" parent="1">
          <mxGeometry x="999.5" y="527" width="20" height="20" as="geometry" />
        </mxCell>
        <mxCell id="0923S_j0JnBtRMVEVHoq-96" value="" style="shape=waypoint;sketch=0;fillStyle=solid;size=6;pointerEvents=1;points=[];fillColor=none;resizable=0;rotatable=0;perimeter=centerPerimeter;snapToPoint=1;strokeWidth=3;" vertex="1" parent="1">
          <mxGeometry x="1019.5" y="527" width="20" height="20" as="geometry" />
        </mxCell>
        <mxCell id="0923S_j0JnBtRMVEVHoq-97" value="" style="shape=waypoint;sketch=0;fillStyle=solid;size=6;pointerEvents=1;points=[];fillColor=none;resizable=0;rotatable=0;perimeter=centerPerimeter;snapToPoint=1;strokeWidth=3;" vertex="1" parent="1">
          <mxGeometry x="1039.5" y="527" width="20" height="20" as="geometry" />
        </mxCell>
        <mxCell id="0923S_j0JnBtRMVEVHoq-98" value="" style="shape=waypoint;sketch=0;fillStyle=solid;size=6;pointerEvents=1;points=[];fillColor=none;resizable=0;rotatable=0;perimeter=centerPerimeter;snapToPoint=1;strokeWidth=3;" vertex="1" parent="1">
          <mxGeometry x="1059.5" y="527" width="20" height="20" as="geometry" />
        </mxCell>
        <mxCell id="0923S_j0JnBtRMVEVHoq-99" value="" style="shape=waypoint;sketch=0;fillStyle=solid;size=6;pointerEvents=1;points=[];fillColor=none;resizable=0;rotatable=0;perimeter=centerPerimeter;snapToPoint=1;strokeWidth=3;" vertex="1" parent="1">
          <mxGeometry x="1079.5" y="527" width="20" height="20" as="geometry" />
        </mxCell>
        <mxCell id="0923S_j0JnBtRMVEVHoq-100" value="" style="group;direction=east;rotation=-180;" vertex="1" connectable="0" parent="1">
          <mxGeometry x="1200" y="447" width="76" height="180" as="geometry" />
        </mxCell>
        <mxCell id="0923S_j0JnBtRMVEVHoq-101" value="" style="verticalLabelPosition=bottom;verticalAlign=top;html=1;shape=mxgraph.basic.arc;startAngle=0.75;endAngle=0;strokeWidth=4;rotation=-180;" vertex="1" parent="0923S_j0JnBtRMVEVHoq-100">
          <mxGeometry y="130" width="76" height="50" as="geometry" />
        </mxCell>
        <mxCell id="0923S_j0JnBtRMVEVHoq-102" value="" style="endArrow=none;html=1;rounded=0;strokeWidth=4;" edge="1" parent="0923S_j0JnBtRMVEVHoq-100">
          <mxGeometry width="50" height="50" relative="1" as="geometry">
            <mxPoint x="76" y="25" as="sourcePoint" />
            <mxPoint x="76" y="155" as="targetPoint" />
          </mxGeometry>
        </mxCell>
        <mxCell id="0923S_j0JnBtRMVEVHoq-103" value="" style="verticalLabelPosition=bottom;verticalAlign=top;html=1;shape=mxgraph.basic.arc;startAngle=0.75;endAngle=0;strokeWidth=4;flipV=1;rotation=-180;" vertex="1" parent="0923S_j0JnBtRMVEVHoq-100">
          <mxGeometry width="76" height="50" as="geometry" />
        </mxCell>
        <mxCell id="0923S_j0JnBtRMVEVHoq-104" value="&lt;font face=&quot;MS Mincho,ＭＳ 明朝&quot; style=&quot;font-size: 42px;&quot;&gt;prefetch_req&lt;/font&gt;" style="edgeLabel;html=1;align=center;verticalAlign=middle;resizable=0;points=[];labelBackgroundColor=default;" vertex="1" connectable="0" parent="1">
          <mxGeometry x="219.99658214415217" y="626.9964635985943" as="geometry">
            <mxPoint x="2" y="-93" as="offset" />
          </mxGeometry>
        </mxCell>
        <mxCell id="0923S_j0JnBtRMVEVHoq-105" value="" style="rounded=1;whiteSpace=wrap;html=1;strokeWidth=4;dashed=1;fillColor=none;arcSize=6;" vertex="1" parent="1">
          <mxGeometry x="829.5" y="10" width="420" height="700" as="geometry" />
        </mxCell>
        <mxCell id="0923S_j0JnBtRMVEVHoq-106" value="&lt;font face=&quot;MS Mincho,ＭＳ 明朝&quot; style=&quot;font-size: 48px;&quot;&gt;allMSHR&lt;/font&gt;" style="edgeLabel;html=1;align=center;verticalAlign=middle;resizable=0;points=[];labelBackgroundColor=default;" vertex="1" connectable="0" parent="1">
          <mxGeometry x="1039.4965821441522" y="139.99646359859435" as="geometry">
            <mxPoint x="2" y="-93" as="offset" />
          </mxGeometry>
        </mxCell>
        <mxCell id="0923S_j0JnBtRMVEVHoq-107" value="" style="endArrow=classic;html=1;rounded=0;strokeWidth=4;endFill=1;startArrow=none;startFill=0;endSize=28;targetPerimeterSpacing=0;exitX=0.45;exitY=0;exitDx=0;exitDy=0;exitPerimeter=0;entryX=0.5;entryY=0;entryDx=0;entryDy=0;" edge="1" parent="1" source="0923S_j0JnBtRMVEVHoq-51" target="0923S_j0JnBtRMVEVHoq-105">
          <mxGeometry width="50" height="50" relative="1" as="geometry">
            <mxPoint x="986.5" y="-40" as="sourcePoint" />
            <mxPoint x="1099.5" y="-40" as="targetPoint" />
          </mxGeometry>
        </mxCell>
        <mxCell id="0923S_j0JnBtRMVEVHoq-108" value="&lt;font face=&quot;MS Mincho,ＭＳ 明朝&quot; style=&quot;font-size: 48px;&quot;&gt;victim&lt;/font&gt;" style="edgeLabel;html=1;align=center;verticalAlign=middle;resizable=0;points=[];labelBackgroundColor=default;" vertex="1" connectable="0" parent="1">
          <mxGeometry x="1039.4965821441522" y="25.996463598594346" as="geometry">
            <mxPoint x="2" y="-93" as="offset" />
          </mxGeometry>
        </mxCell>
        <mxCell id="0923S_j0JnBtRMVEVHoq-109" value="&lt;font style=&quot;font-size: 51px;&quot; face=&quot;MS Mincho,ＭＳ 明朝&quot;&gt;Arbiter&lt;/font&gt;" style="rhombus;whiteSpace=wrap;html=1;fillColor=none;strokeWidth=4;" vertex="1" parent="1">
          <mxGeometry x="1470.51" y="442" width="260" height="190" as="geometry" />
        </mxCell>
        <mxCell id="0923S_j0JnBtRMVEVHoq-110" value="&lt;font style=&quot;font-size: 51px;&quot; face=&quot;MS Mincho,ＭＳ 明朝&quot;&gt;Arbiter&lt;/font&gt;" style="rhombus;whiteSpace=wrap;html=1;fillColor=none;strokeWidth=4;" vertex="1" parent="1">
          <mxGeometry x="1630" y="135" width="260" height="190" as="geometry" />
        </mxCell>
        <mxCell id="0923S_j0JnBtRMVEVHoq-111" value="" style="endArrow=classic;html=1;rounded=0;strokeWidth=4;endFill=1;startArrow=none;startFill=0;endSize=28;targetPerimeterSpacing=0;entryX=0;entryY=0.5;entryDx=0;entryDy=0;" edge="1" parent="1" target="0923S_j0JnBtRMVEVHoq-109">
          <mxGeometry width="50" height="50" relative="1" as="geometry">
            <mxPoint x="1278" y="537" as="sourcePoint" />
            <mxPoint x="1467.5" y="537.5" as="targetPoint" />
          </mxGeometry>
        </mxCell>
        <mxCell id="0923S_j0JnBtRMVEVHoq-116" value="" style="endArrow=classic;html=1;rounded=0;strokeWidth=4;endFill=1;startArrow=none;startFill=0;endSize=28;targetPerimeterSpacing=0;entryX=0;entryY=0.5;entryDx=0;entryDy=0;" edge="1" parent="1" target="0923S_j0JnBtRMVEVHoq-110">
          <mxGeometry width="50" height="50" relative="1" as="geometry">
            <mxPoint x="1276" y="229.5" as="sourcePoint" />
            <mxPoint x="1469" y="229.5" as="targetPoint" />
          </mxGeometry>
        </mxCell>
        <mxCell id="0923S_j0JnBtRMVEVHoq-117" value="" style="endArrow=classic;html=1;rounded=0;strokeWidth=4;endFill=1;startArrow=none;startFill=0;endSize=28;targetPerimeterSpacing=0;entryX=0.5;entryY=1;entryDx=0;entryDy=0;exitX=1;exitY=0.5;exitDx=0;exitDy=0;" edge="1" parent="1" source="0923S_j0JnBtRMVEVHoq-109" target="0923S_j0JnBtRMVEVHoq-110">
          <mxGeometry width="50" height="50" relative="1" as="geometry">
            <mxPoint x="1680" y="537" as="sourcePoint" />
            <mxPoint x="1760" y="322" as="targetPoint" />
            <Array as="points">
              <mxPoint x="1761" y="537" />
            </Array>
          </mxGeometry>
        </mxCell>
        <mxCell id="0923S_j0JnBtRMVEVHoq-118" value="&lt;font face=&quot;MS Mincho, ＭＳ 明朝&quot; style=&quot;font-size: 52px;&quot;&gt;acquire&lt;/font&gt;" style="ellipse;whiteSpace=wrap;html=1;fillColor=#E6E6E6;strokeWidth=4;" vertex="1" parent="1">
          <mxGeometry x="1961" y="150" width="260" height="160" as="geometry" />
        </mxCell>
        <mxCell id="0923S_j0JnBtRMVEVHoq-119" value="" style="endArrow=classic;html=1;rounded=0;strokeWidth=4;endFill=1;startArrow=none;startFill=0;endSize=28;targetPerimeterSpacing=0;entryX=0.999;entryY=0.513;entryDx=0;entryDy=0;exitX=0.5;exitY=1;exitDx=0;exitDy=0;entryPerimeter=0;" edge="1" parent="1" source="0923S_j0JnBtRMVEVHoq-118">
          <mxGeometry width="50" height="50" relative="1" as="geometry">
            <mxPoint x="2091" y="451" as="sourcePoint" />
            <mxPoint x="2257.7799999999997" y="623.5" as="targetPoint" />
            <Array as="points">
              <mxPoint x="2090" y="624" />
            </Array>
          </mxGeometry>
        </mxCell>
        <mxCell id="0923S_j0JnBtRMVEVHoq-120" value="" style="endArrow=classic;html=1;rounded=0;strokeWidth=4;endFill=1;startArrow=none;startFill=0;endSize=28;entryX=0.5;entryY=0;entryDx=0;entryDy=0;exitX=0.999;exitY=0.542;exitDx=0;exitDy=0;sourcePerimeterSpacing=0;exitPerimeter=0;" edge="1" parent="1" target="0923S_j0JnBtRMVEVHoq-121">
          <mxGeometry width="50" height="50" relative="1" as="geometry">
            <mxPoint x="2257.78" y="697.0000000000002" as="sourcePoint" />
            <mxPoint x="2091" y="860" as="targetPoint" />
            <Array as="points">
              <mxPoint x="2091" y="697" />
            </Array>
          </mxGeometry>
        </mxCell>
        <mxCell id="0923S_j0JnBtRMVEVHoq-121" value="&lt;font face=&quot;MS Mincho, ＭＳ 明朝&quot; style=&quot;font-size: 52px;&quot;&gt;grant&lt;/font&gt;" style="ellipse;whiteSpace=wrap;html=1;fillColor=#E6E6E6;strokeWidth=4;" vertex="1" parent="1">
          <mxGeometry x="1961" y="839" width="260" height="160" as="geometry" />
        </mxCell>
        <mxCell id="0923S_j0JnBtRMVEVHoq-122" value="" style="group;fillColor=none;flipH=1;" vertex="1" connectable="0" parent="1">
          <mxGeometry x="1581" y="842" width="96" height="154" as="geometry" />
        </mxCell>
        <mxCell id="0923S_j0JnBtRMVEVHoq-123" value="" style="rounded=0;whiteSpace=wrap;html=1;fillColor=none;strokeWidth=4;flipH=0;" vertex="1" parent="0923S_j0JnBtRMVEVHoq-122">
          <mxGeometry width="95.99999999999999" height="154" as="geometry" />
        </mxCell>
        <mxCell id="0923S_j0JnBtRMVEVHoq-124" value="" style="triangle;whiteSpace=wrap;html=1;fillColor=none;strokeWidth=4;flipH=1;" vertex="1" parent="0923S_j0JnBtRMVEVHoq-122">
          <mxGeometry x="70" y="99.7453947368421" width="24.94" height="39.371315789473684" as="geometry" />
        </mxCell>
        <mxCell id="0923S_j0JnBtRMVEVHoq-125" value="" style="group;fillColor=none;flipH=1;" vertex="1" connectable="0" parent="1">
          <mxGeometry x="1583" y="1156" width="96" height="154" as="geometry" />
        </mxCell>
        <mxCell id="0923S_j0JnBtRMVEVHoq-126" value="" style="rounded=0;whiteSpace=wrap;html=1;fillColor=none;strokeWidth=4;flipH=0;" vertex="1" parent="0923S_j0JnBtRMVEVHoq-125">
          <mxGeometry width="95.99999999999999" height="154" as="geometry" />
        </mxCell>
        <mxCell id="0923S_j0JnBtRMVEVHoq-127" value="" style="triangle;whiteSpace=wrap;html=1;fillColor=none;strokeWidth=4;flipH=1;" vertex="1" parent="0923S_j0JnBtRMVEVHoq-125">
          <mxGeometry x="70" y="99.7453947368421" width="24.94" height="39.371315789473684" as="geometry" />
        </mxCell>
        <mxCell id="0923S_j0JnBtRMVEVHoq-128" value="" style="endArrow=classic;html=1;rounded=0;strokeWidth=4;endFill=1;startArrow=none;startFill=0;endSize=28;targetPerimeterSpacing=0;entryX=0;entryY=0.5;entryDx=0;entryDy=0;exitX=1;exitY=0.5;exitDx=0;exitDy=0;" edge="1" parent="1" source="0923S_j0JnBtRMVEVHoq-110" target="0923S_j0JnBtRMVEVHoq-118">
          <mxGeometry width="50" height="50" relative="1" as="geometry">
            <mxPoint x="1780" y="229.66000000000003" as="sourcePoint" />
            <mxPoint x="1973" y="229.66000000000003" as="targetPoint" />
          </mxGeometry>
        </mxCell>
        <mxCell id="0923S_j0JnBtRMVEVHoq-129" value="&lt;font style=&quot;font-size: 54px;&quot; face=&quot;MS Mincho, ＭＳ 明朝&quot;&gt;&lt;span style=&quot;text-wrap-mode: nowrap;&quot;&gt;Choose&lt;/span&gt;&lt;/font&gt;" style="rounded=1;whiteSpace=wrap;html=1;fillColor=#E6E6E6;strokeWidth=4;shadow=0;glass=0;autosize=0;resizeWidth=0;imageHeight=24;imageAspect=1;perimeter=rectanglePerimeter;arcSize=21;" vertex="1" parent="1">
          <mxGeometry x="848.5" y="845" width="382.01" height="150" as="geometry" />
        </mxCell>
        <mxCell id="0923S_j0JnBtRMVEVHoq-130" value="&lt;font style=&quot;font-size: 54px;&quot; face=&quot;MS Mincho, ＭＳ 明朝&quot;&gt;&lt;span style=&quot;text-wrap-mode: nowrap;&quot;&gt;Generate&lt;/span&gt;&lt;/font&gt;&lt;div&gt;&lt;font style=&quot;font-size: 54px;&quot; face=&quot;MS Mincho, ＭＳ 明朝&quot;&gt;&lt;span style=&quot;text-wrap-mode: nowrap;&quot;&gt;Resp&lt;/span&gt;&lt;/font&gt;&lt;/div&gt;" style="rounded=1;whiteSpace=wrap;html=1;fillColor=#E6E6E6;strokeWidth=4;shadow=0;glass=0;autosize=0;resizeWidth=0;imageHeight=24;imageAspect=1;perimeter=rectanglePerimeter;arcSize=21;" vertex="1" parent="1">
          <mxGeometry x="419.99" y="1138" width="382.01" height="150" as="geometry" />
        </mxCell>
        <mxCell id="0923S_j0JnBtRMVEVHoq-131" value="" style="shape=delay;whiteSpace=wrap;html=1;flipH=1;strokeWidth=4;fillColor=none;" vertex="1" parent="1">
          <mxGeometry x="870" y="1170" width="110" height="85" as="geometry" />
        </mxCell>
        <mxCell id="0923S_j0JnBtRMVEVHoq-132" value="" style="endArrow=classic;html=1;rounded=0;strokeWidth=4;endFill=1;startArrow=none;startFill=0;endSize=28;entryX=1;entryY=0.5;entryDx=0;entryDy=0;sourcePerimeterSpacing=0;exitX=0;exitY=0.5;exitDx=0;exitDy=0;" edge="1" parent="1" source="0923S_j0JnBtRMVEVHoq-121" target="0923S_j0JnBtRMVEVHoq-123">
          <mxGeometry width="50" height="50" relative="1" as="geometry">
            <mxPoint x="1935" y="918.91" as="sourcePoint" />
            <mxPoint x="1581" y="918.41" as="targetPoint" />
          </mxGeometry>
        </mxCell>
        <mxCell id="0923S_j0JnBtRMVEVHoq-133" value="" style="endArrow=classic;html=1;rounded=0;strokeWidth=4;endFill=1;startArrow=none;startFill=0;endSize=28;entryX=1;entryY=0.5;entryDx=0;entryDy=0;sourcePerimeterSpacing=0;exitX=0;exitY=0.5;exitDx=0;exitDy=0;" edge="1" parent="1" target="0923S_j0JnBtRMVEVHoq-129">
          <mxGeometry width="50" height="50" relative="1" as="geometry">
            <mxPoint x="1581" y="918.66" as="sourcePoint" />
            <mxPoint x="1297" y="918.66" as="targetPoint" />
          </mxGeometry>
        </mxCell>
        <mxCell id="0923S_j0JnBtRMVEVHoq-134" value="&lt;font face=&quot;MS Mincho,ＭＳ 明朝&quot; style=&quot;font-size: 42px;&quot;&gt;tilelink_a&lt;/font&gt;" style="edgeLabel;html=1;align=center;verticalAlign=middle;resizable=0;points=[];labelBackgroundColor=default;" vertex="1" connectable="0" parent="1">
          <mxGeometry x="2087.996582144152" y="639.9964635985943" as="geometry">
            <mxPoint x="2" y="-93" as="offset" />
          </mxGeometry>
        </mxCell>
        <mxCell id="0923S_j0JnBtRMVEVHoq-135" value="&lt;font face=&quot;MS Mincho,ＭＳ 明朝&quot; style=&quot;font-size: 42px;&quot;&gt;tilelink_d&lt;/font&gt;" style="edgeLabel;html=1;align=center;verticalAlign=middle;resizable=0;points=[];labelBackgroundColor=default;" vertex="1" connectable="0" parent="1">
          <mxGeometry x="2090.996582144152" y="838.9964635985943" as="geometry">
            <mxPoint x="2" y="-93" as="offset" />
          </mxGeometry>
        </mxCell>
        <mxCell id="0923S_j0JnBtRMVEVHoq-137" value="&lt;font face=&quot;MS Mincho,ＭＳ 明朝&quot; style=&quot;font-size: 42px;&quot;&gt;id_r&lt;/font&gt;" style="edgeLabel;html=1;align=center;verticalAlign=middle;resizable=0;points=[];labelBackgroundColor=default;" vertex="1" connectable="0" parent="1">
          <mxGeometry x="1479.996582144152" y="1009.9964635985943" as="geometry">
            <mxPoint x="2" y="-93" as="offset" />
          </mxGeometry>
        </mxCell>
        <mxCell id="0923S_j0JnBtRMVEVHoq-138" value="" style="endArrow=classic;html=1;rounded=0;strokeWidth=4;endFill=1;startArrow=none;startFill=0;endSize=28;entryX=1.003;entryY=0.466;entryDx=0;entryDy=0;sourcePerimeterSpacing=0;entryPerimeter=0;jumpStyle=arc;jumpSize=16;" edge="1" parent="1">
          <mxGeometry width="50" height="50" relative="1" as="geometry">
            <mxPoint x="1395" y="920" as="sourcePoint" />
            <mxPoint x="1250.7599999999998" y="353.2000000000003" as="targetPoint" />
            <Array as="points">
              <mxPoint x="1395" y="353" />
            </Array>
          </mxGeometry>
        </mxCell>
        <mxCell id="0923S_j0JnBtRMVEVHoq-139" value="" style="endArrow=classic;html=1;rounded=0;strokeWidth=4;endFill=1;startArrow=none;startFill=0;endSize=28;entryX=0.75;entryY=0;entryDx=0;entryDy=0;sourcePerimeterSpacing=0;exitX=0;exitY=1;exitDx=0;exitDy=0;" edge="1" parent="1" source="0923S_j0JnBtRMVEVHoq-121" target="0923S_j0JnBtRMVEVHoq-130">
          <mxGeometry width="50" height="50" relative="1" as="geometry">
            <mxPoint x="1934" y="1090" as="sourcePoint" />
            <mxPoint x="1650" y="1090" as="targetPoint" />
            <Array as="points">
              <mxPoint x="2000" y="1040" />
              <mxPoint x="710" y="1040" />
            </Array>
          </mxGeometry>
        </mxCell>
        <mxCell id="0923S_j0JnBtRMVEVHoq-140" value="&lt;font face=&quot;MS Mincho,ＭＳ 明朝&quot; style=&quot;font-size: 42px;&quot;&gt;data&lt;/font&gt;" style="edgeLabel;html=1;align=center;verticalAlign=middle;resizable=0;points=[];labelBackgroundColor=default;" vertex="1" connectable="0" parent="1">
          <mxGeometry x="1819.996582144152" y="1129.9964635985943" as="geometry">
            <mxPoint x="2" y="-93" as="offset" />
          </mxGeometry>
        </mxCell>
        <mxCell id="0923S_j0JnBtRMVEVHoq-142" value="" style="endArrow=classic;html=1;rounded=0;strokeWidth=4;endFill=1;startArrow=none;startFill=0;endSize=28;entryX=1;entryY=0.5;entryDx=0;entryDy=0;sourcePerimeterSpacing=0;exitX=0.5;exitY=1;exitDx=0;exitDy=0;" edge="1" parent="1">
          <mxGeometry width="50" height="50" relative="1" as="geometry">
            <mxPoint x="2090.9999999999995" y="999" as="sourcePoint" />
            <mxPoint x="1679" y="1233" as="targetPoint" />
            <Array as="points">
              <mxPoint x="2090" y="1233" />
            </Array>
          </mxGeometry>
        </mxCell>
        <mxCell id="0923S_j0JnBtRMVEVHoq-143" value="&lt;font face=&quot;MS Mincho,ＭＳ 明朝&quot; style=&quot;font-size: 42px;&quot;&gt;last_fire&lt;/font&gt;" style="edgeLabel;html=1;align=center;verticalAlign=middle;resizable=0;points=[];labelBackgroundColor=default;" vertex="1" connectable="0" parent="1">
          <mxGeometry x="1859.996582144152" y="1319.9964635985943" as="geometry">
            <mxPoint x="2" y="-93" as="offset" />
          </mxGeometry>
        </mxCell>
        <mxCell id="0923S_j0JnBtRMVEVHoq-144" value="" style="endArrow=classic;html=1;rounded=0;strokeWidth=4;endFill=1;startArrow=none;startFill=0;endSize=28;entryX=1;entryY=0.75;entryDx=0;entryDy=0;sourcePerimeterSpacing=0;exitX=0;exitY=0.5;exitDx=0;exitDy=0;" edge="1" parent="1" target="0923S_j0JnBtRMVEVHoq-131">
          <mxGeometry width="50" height="50" relative="1" as="geometry">
            <mxPoint x="1581" y="1232.6399999999999" as="sourcePoint" />
            <mxPoint x="1297" y="1232.6399999999999" as="targetPoint" />
          </mxGeometry>
        </mxCell>
        <mxCell id="0923S_j0JnBtRMVEVHoq-146" value="" style="endArrow=classic;html=1;rounded=0;strokeWidth=4;endFill=1;startArrow=none;startFill=0;endSize=28;sourcePerimeterSpacing=0;jumpStyle=arc;jumpSize=16;" edge="1" parent="1">
          <mxGeometry width="50" height="50" relative="1" as="geometry">
            <mxPoint x="1329.82" y="1233" as="sourcePoint" />
            <mxPoint x="1250" y="423" as="targetPoint" />
            <Array as="points">
              <mxPoint x="1329.82" y="423" />
            </Array>
          </mxGeometry>
        </mxCell>
        <mxCell id="0923S_j0JnBtRMVEVHoq-147" value="" style="endArrow=classic;html=1;rounded=0;strokeWidth=4;endFill=1;startArrow=none;startFill=0;endSize=28;entryX=1;entryY=0.25;entryDx=0;entryDy=0;sourcePerimeterSpacing=0;exitX=0.5;exitY=1;exitDx=0;exitDy=0;jumpStyle=arc;jumpSize=16;" edge="1" parent="1" source="0923S_j0JnBtRMVEVHoq-129" target="0923S_j0JnBtRMVEVHoq-131">
          <mxGeometry width="50" height="50" relative="1" as="geometry">
            <mxPoint x="1249.5" y="1120" as="sourcePoint" />
            <mxPoint x="965.5" y="1120" as="targetPoint" />
            <Array as="points">
              <mxPoint x="1040" y="1191" />
            </Array>
          </mxGeometry>
        </mxCell>
        <mxCell id="0923S_j0JnBtRMVEVHoq-148" value="&lt;font face=&quot;MS Mincho,ＭＳ 明朝&quot; style=&quot;font-size: 42px;&quot;&gt;flush&lt;/font&gt;" style="edgeLabel;html=1;align=center;verticalAlign=middle;resizable=0;points=[];labelBackgroundColor=default;" vertex="1" connectable="0" parent="1">
          <mxGeometry x="1039.496582144152" y="1189.9964635985943" as="geometry">
            <mxPoint x="2" y="-93" as="offset" />
          </mxGeometry>
        </mxCell>
        <mxCell id="0923S_j0JnBtRMVEVHoq-149" value="" style="endArrow=classic;html=1;rounded=0;strokeWidth=4;endFill=1;startArrow=none;startFill=0;endSize=28;entryX=1;entryY=0.5;entryDx=0;entryDy=0;sourcePerimeterSpacing=0;exitX=0;exitY=0.5;exitDx=0;exitDy=0;" edge="1" parent="1" source="0923S_j0JnBtRMVEVHoq-131" target="0923S_j0JnBtRMVEVHoq-130">
          <mxGeometry width="50" height="50" relative="1" as="geometry">
            <mxPoint x="864" y="1212" as="sourcePoint" />
            <mxPoint x="580" y="1212" as="targetPoint" />
          </mxGeometry>
        </mxCell>
        <mxCell id="0923S_j0JnBtRMVEVHoq-150" value="" style="endArrow=classic;html=1;rounded=0;strokeWidth=4;endFill=1;startArrow=none;startFill=0;endSize=28;entryX=0.5;entryY=0;entryDx=0;entryDy=0;sourcePerimeterSpacing=0;exitX=0;exitY=0.5;exitDx=0;exitDy=0;" edge="1" parent="1" source="0923S_j0JnBtRMVEVHoq-129" target="0923S_j0JnBtRMVEVHoq-130">
          <mxGeometry width="50" height="50" relative="1" as="geometry">
            <mxPoint x="824" y="918.5" as="sourcePoint" />
            <mxPoint x="540" y="918.5" as="targetPoint" />
            <Array as="points">
              <mxPoint x="610" y="920" />
            </Array>
          </mxGeometry>
        </mxCell>
        <mxCell id="0923S_j0JnBtRMVEVHoq-151" value="&lt;font face=&quot;MS Mincho, ＭＳ 明朝&quot;&gt;&lt;span style=&quot;font-size: 42px;&quot;&gt;addr&lt;/span&gt;&lt;/font&gt;&lt;div&gt;&lt;font face=&quot;MS Mincho, ＭＳ 明朝&quot;&gt;&lt;span style=&quot;font-size: 42px;&quot;&gt;waymask&lt;/span&gt;&lt;/font&gt;&lt;/div&gt;" style="edgeLabel;html=1;align=center;verticalAlign=middle;resizable=0;points=[];labelBackgroundColor=default;" vertex="1" connectable="0" parent="1">
          <mxGeometry x="719.996582144152" y="1009.9964635985943" as="geometry">
            <mxPoint x="2" y="-93" as="offset" />
          </mxGeometry>
        </mxCell>
        <mxCell id="0923S_j0JnBtRMVEVHoq-153" value="" style="endArrow=classic;html=1;rounded=0;strokeWidth=4;endFill=1;startArrow=none;startFill=0;endSize=28;entryX=0.5;entryY=0;entryDx=0;entryDy=0;sourcePerimeterSpacing=0;exitX=0.5;exitY=1;exitDx=0;exitDy=0;" edge="1" parent="1" source="0923S_j0JnBtRMVEVHoq-105" target="0923S_j0JnBtRMVEVHoq-129">
          <mxGeometry width="50" height="50" relative="1" as="geometry">
            <mxPoint x="1039.5" y="750" as="sourcePoint" />
            <mxPoint x="755.5" y="750" as="targetPoint" />
          </mxGeometry>
        </mxCell>
        <mxCell id="0923S_j0JnBtRMVEVHoq-152" value="&lt;font face=&quot;MS Mincho, ＭＳ 明朝&quot;&gt;&lt;span style=&quot;font-size: 42px;&quot;&gt;all addr/waymsk/flush&lt;/span&gt;&lt;/font&gt;" style="edgeLabel;html=1;align=center;verticalAlign=middle;resizable=0;points=[];labelBackgroundColor=default;" vertex="1" connectable="0" parent="1">
          <mxGeometry x="1039.506582144152" y="849.9964635985943" as="geometry">
            <mxPoint x="2" y="-93" as="offset" />
          </mxGeometry>
        </mxCell>
        <mxCell id="0923S_j0JnBtRMVEVHoq-154" value="" style="endArrow=classic;html=1;rounded=0;strokeWidth=4;endFill=1;startArrow=none;startFill=0;endSize=28;entryX=0.001;entryY=0.827;entryDx=0;entryDy=0;sourcePerimeterSpacing=0;exitX=0;exitY=0.5;exitDx=0;exitDy=0;entryPerimeter=0;" edge="1" parent="1" source="0923S_j0JnBtRMVEVHoq-130" target="0923S_j0JnBtRMVEVHoq-51">
          <mxGeometry width="50" height="50" relative="1" as="geometry">
            <mxPoint x="404.8599999999999" y="1220" as="sourcePoint" />
            <mxPoint x="120.8599999999999" y="1220" as="targetPoint" />
          </mxGeometry>
        </mxCell>
        <mxCell id="0923S_j0JnBtRMVEVHoq-155" value="&lt;font face=&quot;MS Mincho,ＭＳ 明朝&quot; style=&quot;font-size: 42px;&quot;&gt;fetch_resp&lt;/font&gt;" style="edgeLabel;html=1;align=center;verticalAlign=middle;resizable=0;points=[];labelBackgroundColor=default;" vertex="1" connectable="0" parent="1">
          <mxGeometry x="229.99658214415217" y="1309.9964635985943" as="geometry">
            <mxPoint x="2" y="-93" as="offset" />
          </mxGeometry>
        </mxCell>
        <mxCell id="0923S_j0JnBtRMVEVHoq-156" value="" style="endArrow=classic;html=1;rounded=0;strokeWidth=4;endFill=1;startArrow=none;startFill=0;endSize=28;entryX=0.257;entryY=0.999;entryDx=0;entryDy=0;sourcePerimeterSpacing=0;exitX=0.5;exitY=1;exitDx=0;exitDy=0;entryPerimeter=0;" edge="1" parent="1" source="0923S_j0JnBtRMVEVHoq-130" target="0923S_j0JnBtRMVEVHoq-51">
          <mxGeometry width="50" height="50" relative="1" as="geometry">
            <mxPoint x="614" y="1340" as="sourcePoint" />
            <mxPoint x="330" y="1340" as="targetPoint" />
          </mxGeometry>
        </mxCell>
        <mxCell id="0923S_j0JnBtRMVEVHoq-157" value="&lt;font face=&quot;MS Mincho,ＭＳ 明朝&quot; style=&quot;font-size: 42px; color: rgb(0, 0, 0);&quot;&gt;meta_write&lt;/font&gt;&lt;div&gt;&lt;font face=&quot;MS Mincho,ＭＳ 明朝&quot; style=&quot;font-size: 42px; color: rgb(0, 0, 0);&quot;&gt;data_write&lt;/font&gt;&lt;/div&gt;" style="edgeLabel;html=1;align=center;verticalAlign=middle;resizable=0;points=[];labelBackgroundColor=default;" vertex="1" connectable="0" parent="1">
          <mxGeometry x="619.9965821441522" y="1454.9964635985943" as="geometry">
            <mxPoint x="2" y="-93" as="offset" />
          </mxGeometry>
        </mxCell>
        <mxCell id="0923S_j0JnBtRMVEVHoq-158" value="&lt;font face=&quot;MS Mincho,ＭＳ 明朝&quot; style=&quot;font-size: 42px; color: rgb(0, 0, 0);&quot;&gt;source&lt;/font&gt;" style="edgeLabel;html=1;align=center;verticalAlign=middle;resizable=0;points=[];labelBackgroundColor=default;" vertex="1" connectable="0" parent="1">
          <mxGeometry x="1819.996582144152" y="1009.9964635985943" as="geometry">
            <mxPoint x="2" y="-93" as="offset" />
          </mxGeometry>
        </mxCell>
        <mxCell id="0923S_j0JnBtRMVEVHoq-159" value="&lt;font face=&quot;MS Mincho,ＭＳ 明朝&quot; style=&quot;font-size: 42px; color: rgb(0, 0, 0);&quot;&gt;last_fire_r&lt;/font&gt;" style="edgeLabel;html=1;align=center;verticalAlign=middle;resizable=0;points=[];labelBackgroundColor=default;" vertex="1" connectable="0" parent="1">
          <mxGeometry x="1449.996582144152" y="1319.9964635985943" as="geometry">
            <mxPoint x="2" y="-93" as="offset" />
          </mxGeometry>
        </mxCell>
      </root>
    </mxGraphModel>
  </diagram>
</mxfile>
